<?xml version="1.0" encoding="UTF-8" standalone="no"?>
<svg
   version="1.0"
   width="920.000000pt"
   height="512.000000pt"
   viewBox="0 0 920.000000 512.000000"
   preserveAspectRatio="xMidYMid meet"
   id="svg10"
   sodipodi:docname="акция.svg"
   inkscape:version="1.2.2 (b0a8486541, 2022-12-01)"
   xmlns:inkscape="http://www.inkscape.org/namespaces/inkscape"
   xmlns:sodipodi="http://sodipodi.sourceforge.net/DTD/sodipodi-0.dtd"
   xmlns="http://www.w3.org/2000/svg"
   xmlns:svg="http://www.w3.org/2000/svg">
  <defs
     id="defs14" />
  <sodipodi:namedview
     id="namedview12"
     pagecolor="#ffffff"
     bordercolor="#000000"
     borderopacity="0.25"
     inkscape:showpageshadow="2"
     inkscape:pageopacity="0.0"
     inkscape:pagecheckerboard="0"
     inkscape:deskcolor="#d1d1d1"
     inkscape:document-units="pt"
     showgrid="false"
     inkscape:zoom="1.1331522"
     inkscape:cx="364.91126"
     inkscape:cy="341.52517"
     inkscape:window-width="1920"
     inkscape:window-height="1012"
     inkscape:window-x="0"
     inkscape:window-y="0"
     inkscape:window-maximized="1"
     inkscape:current-layer="svg10" />
  <g
     transform="translate(0.000000,512.000000) scale(0.100000,-0.100000)"
     fill="#000000"
     stroke="none"
     id="g8"
     style="fill:#f5333f;fill-opacity:1;stroke:#000000;stroke-opacity:1;stroke-width:24.99999998;stroke-dasharray:none">
    <path
       d="M3977 5066 c-20 -8 -45 -20 -54 -27 -9 -8 -92 -115 -185 -239 -139 -185 -174 -226 -199 -231 -16 -4 -141 -10 -277 -14 -136 -3 -264 -11 -284 -16 -47 -12 -95 -52 -112 -93 -7 -17 -33 -156 -57 -308 l-44 -278 -253 -146 c-169 -98 -261 -157 -277 -178 -49 -65 -45 -93 57 -399 l94 -278 -153 -239 c-83 -131 -157 -257 -163 -280 -23 -86 -7 -107 358 -455 61 -58 82 -85 82 -104 0 -14 -9 -150 -22 -302 l-22 -275 25 -44 c15 -29 39 -52 64 -66 22 -12 158 -54 303 -95 l262 -74 112 -264 c121 -284 143 -320 214 -341 37 -11 67 -7 331 47 l290 60 219 -180 c120 -98 231 -185 246 -193 46 -24 108 -18 159 15 24 16 134 103 243 193 l199 165 290 -60 c409 -84 377 -100 538 278 61 146 117 269 123 274 6 5 130 43 275 85 145 42 278 84 295 94 17 10 42 38 55 62 l25 44 -22 275 c-13 152 -22 287 -22 301 0 20 48 72 213 232 235 227 249 247 227 328 -6 21 -79 147 -163 280 l-153 240 94 277 c102 306 106 334 57 398 -16 22 -109 81 -277 179 l-253 146 -38 242 c-46 291 -61 355 -90 386 -48 52 -64 55 -377 67 -269 11 -295 14 -307 31 -7 11 -86 116 -175 234 -105 137 -175 222 -197 234 -69 40 -101 31 -388 -106 l-263 -126 -258 123 c-142 68 -274 126 -293 129 -19 3 -51 0 -72 -8z m57 -1366 c163 -56 279 -179 331 -350 25 -84 30 -250 11 -340 -45 -213 -184 -363 -389 -417 -84 -23 -259 -22 -352 2 -187 47 -301 154 -369 345 -28 78 -31 95 -30 215 0 114 4 139 26 205 36 101 71 162 129 221 59 58 112 90 199 119 123 41 326 41 444 0z m1341 3 c-3 -10 -236 -443 -517 -963 -281 -520 -559 -1034 -617 -1142 l-106 -197 -154 -1 c-118 0 -152 3 -148 13 2 6 203 381 447 832 243 451 521 967 618 1147 l177 328 154 0 c142 0 153 -1 146 -17z m242 -1195 c235 -83 365 -297 350 -573 -7 -121 -33 -211 -85 -291 -71 -109 -160 -175 -292 -216 -63 -19 -95 -23 -205 -22 -114 1 -140 4 -210 28 -179 61 -284 172 -342 361 -13 45 -18 91 -17 185 0 108 4 135 26 197 35 98 72 158 134 220 68 66 147 104 289 137 11 3 79 4 150 2 110 -2 141 -6 202 -28z"
       id="path2"
       style="fill:#f5333f;fill-opacity:1;stroke:#000000;stroke-opacity:1;stroke-width:24.99999998;stroke-dasharray:none" />
    <path
       d="M3732 3435 c-54 -46 -75 -114 -80 -260 -7 -206 31 -311 125 -344 55 -20 118 0 150 48 96 143 73 509 -36 565 -48 25 -124 21 -159 -9z"
       id="path4"
       style="fill:#f5333f;fill-opacity:1;stroke:#000000;stroke-opacity:1;stroke-width:24.99999998;stroke-dasharray:none" />
    <path
       d="M5323 2280 c-33 -13 -79 -83 -94 -143 -8 -29 -13 -105 -13 -172 0 -143 18 -218 68 -272 28 -31 40 -37 87 -40 123 -9 179 90 179 317 0 163 -31 263 -93 300 -34 21 -96 25 -134 10z"
       id="path6"
       style="fill:#f5333f;fill-opacity:1;stroke:#000000;stroke-opacity:1;stroke-width:24.99999998;stroke-dasharray:none" />
  </g>
</svg>
